Plot:
After their high school basketball coach passes away, five good friends and former teammates reunite for a Fourth of July holiday weekend

Genre:Comedy
Language:English  http://www.imdb.com/title/tt1375670/
Source:DVDR-BOW
Subtitles:Romana

General
Complete name :Grown.Ups.DvDRip.H264.Feel-Free
Format : MPEG-4
Format profile : Base Media
Codec ID : isom
File size : 810 MiB
Duration : 1h 42mn
Overall bit rate : 1 106 Kbps
Video #2
Codec ID : avc1
Codec ID/Info : Advanced Video Coding
Duration : 1h 42mn
Bit rate mode : Variable
Bit rate : 941 Kbps
Width : 640 pixels
Height : 352 pixels
Display aspect ratio : 16:9
Frame rate mode : Constant
Frame rate : 23.976 fps
Original frame rate : 23.000 fps
Resolution : 24 bits
Colorimetry : 4:2:0
Scan type : Progressive
Bits/(Pixel*Frame) : 0.174
Stream size : 689 MiB (85%)
Writing library : ╘-3
Audio #1
ID : 1
Format : AAC
Format/Info : Advanced Audio Codec
Format version : Version 4
Format profile : LC
Format settings, SBR : No
Codec ID : 40
Duration : 1h 42mn
Bit rate mode : Constant
Bit rate : 160 Kbps
Channel(s) : 2 channels
Channel positions : L R
Sampling rate : 48.0 KHz
Resolution : 16 bits
Stream size : 117 MiB (14%)
